#!OML:ASF X:\für Bonn\!DataBase\2005_08_12_Daniel\c3d\Daniel.ASF
:FULLY-SPECIFIED
:DEGREES
235
root 15.2428 1.51153 0.744872 -816.396 -87.7001 -351.628
lowerback 63.1738 -4.85934 9.50986
upperback 16.2681 -4.53287 -3.59295
thorax -3.38935 -3.46318 -6.04302
lowerneck 2.70193 1.97082 -8.59654
upperneck 13.0169 2.23548 1.42316
head 3.67844 0.605102 2.02223
rclavicle -1.55052e-014 -3.61788e-014
rhumerus -58.6353 18.0476 -107.078
rradius 38.5966
rwrist 15.272
rhand -60.6106 -318.828
rfingers 7.12502
rthumb -32.733 -345.884
lclavicle -1.55052e-014 -3.61788e-014
lhumerus -752.166 18.5337 -637.154
lradius 41.793
lwrist 22.8997
lhand -57.2517 353.334
lfingers 7.12502
lthumb -29.5318 381.005
rfemur 321.897 -26.3297 384.116
rtibia 73.2106
rfoot 19.1975 -3.4449
rtoes 14.1121
lfemur -2.46564 76.0478 27.5817
ltibia 138.521
lfoot 42.2921 -18.5018
ltoes 5.68174
236
root 15.2527 1.50921 0.742577 -815.299 -87.6167 -353.143
lowerback 62.9566 -4.93029 9.59389
upperback 16.3394 -4.57156 -3.6113
thorax -3.31483 -3.46926 -6.09135
lowerneck 2.66582 1.92658 -8.56893
upperneck 13.1518 2.1681 1.52956
head 3.73648 0.571694 2.05533
rclavicle -3.94588e-014 -2.90226e-014
rhumerus -59.2602 18.4605 -107.5
rradius 39.4835
rwrist 14.7963
rhand -60.6643 -319.023
rfingers 7.12502
rthumb -32.784 -346.069
lclavicle -3.94588e-014 -2.90226e-014
lhumerus -752.345 18.4766 -637.296
lradius 42.4257
lwrist 23.6659
lhand -56.4619 353.958
lfingers 7.12502
lthumb -28.7776 381.76
rfemur 322.737 -25.8246 383.726
rtibia 72.6868
rfoot 19.0525 -3.79464
rtoes 14.1645
lfemur -8.5498 75.5529 21.7369
ltibia 138.285
lfoot 41.7236 -18.551
ltoes 4.0731
237
root 15.2606 1.50674 0.740828 -814.131 -87.5298 -354.729
lowerback 62.748 -4.99209 9.65445
upperback 16.4055 -4.61228 -3.60558
thorax -3.24395 -3.48073 -6.10168
lowerneck 2.63736 1.89389 -8.58945
upperneck 13.2734 2.11346 1.65524
head 3.78768 0.543544 2.10365
rclavicle -2.4699e-014 -8.11041e-014
rhumerus -59.9189 18.982 -107.94
rradius 40.3969
rwrist 14.1769
rhand -60.6641 -319.152
rfingers 7.12502
rthumb -32.7838 -346.198
lclavicle -2.4699e-014 -8.11041e-014
lhumerus -752.511 18.4846 -637.419
lradius 43.0601
lwrist 24.5146
lhand -55.6435 354.595
lfingers 7.12502
lthumb -27.9955 382.527
rfemur 323.568 -25.3308 383.341
rtibia 72.1754
rfoot 18.9527 -4.15766
rtoes 14.2304
lfemur -14.5486 74.8715 15.9751
ltibia 138.035
lfoot 41.1649 -18.6603
ltoes 2.49351
238
root 15.2676 1.50507 0.738657 -813.41 -87.4391 -355.857
lowerback 62.5471 -5.03517 9.68565
upperback 16.461 -4.64866 -3.59986
thorax -3.18538 -3.49203 -6.10075
lowerneck 2.54308 1.86796 -8.63536
upperneck 13.4594 2.0726 1.79572
head 3.87394 0.519247 2.1643
rclavicle 3.02153e-014 1.92821e-014
rhumerus -60.5518 19.4455 -108.342
rradius 41.2597
rwrist 13.6119
rhand -60.663 -319.049
rfingers 7.12502
rthumb -32.7828 -346.095
lclavicle 3.02153e-014 1.92821e-014
lhumerus -752.735 18.4516 -637.571
lradius 43.756
lwrist 25.46
lhand -54.8794 355.19
lfingers 7.12502
lthumb -27.2648 383.239
rfemur 324.369 -24.8418 382.972
rtibia 71.685
rfoot 18.9395 -4.46356
rtoes 14.3356
lfemur -19.887 74.0566 10.8825
ltibia 137.767
lfoot 40.6621 -18.9135
ltoes 1.46772
239
root 15.2726 1.50185 0.738429 -812.394 -87.3524 -357.3
lowerback 62.3723 -5.11038 9.74772
upperback 16.5062 -4.70193 -3.61136
thorax -3.14083 -3.50841 -6.12362
lowerneck 2.50431 1.84514 -8.61147
upperneck 13.608 2.03387 1.88861
head 3.93655 0.498822 2.19442
rclavicle -2.32081e-014 2.5842e-014
rhumerus -61.1953 19.9194 -108.773
rradius 42.1158
rwrist 13.0258
rhand -60.6642 -319.112
rfingers 7.12502
rthumb -32.784 -346.158
lclavicle -2.32081e-014 2.5842e-014
lhumerus -753.013 18.3777 -637.746
lradius 44.5109
lwrist 26.4821
lhand -54.1723 355.84
lfingers 7.12502
lthumb -26.5882 383.994
rfemur 325.166 -24.3616 382.6
rtibia 71.214
rfoot 18.9529 -4.86315
rtoes 14.5357
lfemur -25.1396 73.0013 5.82367
ltibia 137.436
lfoot 40.2036 -19.0248
ltoes 0.852978
240
root 15.2769 1.50007 0.738122 -812.029 -87.2751 -358.084
lowerback 62.2043 -5.16073 9.79313
upperback 16.5467 -4.7363 -3.61878
thorax -3.09942 -3.51714 -6.14267
lowerneck 2.42846 1.81561 -8.61961
upperneck 13.7849 1.98762 2.00189
head 4.01716 0.473069 2.23853
rclavicle 9.69075e-015 2.28602e-014
rhumerus -61.8116 20.3423 -109.156
rradius 42.9443
rwrist 12.4864
rhand -60.6569 -319.013
rfingers 7.12502
rthumb -32.777 -346.06
lclavicle 9.69075e-015 2.28602e-014
lhumerus -753.338 18.2781 -637.925
lradius 45.3281
lwrist 27.4607
lhand -53.6347 356.51
lfingers 7.12502
lthumb -26.0736 384.741
rfemur 325.947 -23.8595 382.245
rtibia 70.7626
rfoot 18.9812 -5.26633
rtoes 14.7853
lfemur -29.649 71.8305 1.46348
ltibia 137.025
lfoot 39.8066 -19.1571
ltoes 0.785746
241
root 15.2814 1.49712 0.737955 -811.484 -87.1829 -359.065
lowerback 62.068 -5.20873 9.80958
upperback 16.5837 -4.78532 -3.6202
thorax -3.06343 -3.53705 -6.13561
lowerneck 2.32209 1.79986 -8.61371
upperneck 13.9719 1.96367 2.1065
head 4.10628 0.45871 2.27838
rclavicle 1.98288e-014 5.76476e-015
rhumerus -62.4488 20.8247 -109.567
rradius 43.7993
rwrist 11.8841
rhand -60.6312 -318.868
rfingers 7.12502
rthumb -32.7525 -345.92
lclavicle 1.98288e-014 5.76476e-015
lhumerus -753.654 18.1317 -638.081
lradius 46.1421
lwrist 28.5041
lhand -53.1611 356.999
lfingers 7.12502
lthumb -25.6201 385.295
rfemur 326.72 -23.3578 381.878
rtibia 70.3259
rfoot 19.0291 -5.67992
rtoes 15.0181
lfemur -33.7155 70.4817 -2.48232
ltibia 136.565
lfoot 39.423 -19.2368
ltoes 0.890805
242
root 15.2856 1.49372 0.73889 -810.842 -87.1079 -360.134
lowerback 61.9376 -5.26848 9.84235
upperback 16.5998 -4.83354 -3.62233
thorax -3.05045 -3.5549 -6.13506
lowerneck 2.28035 1.79021 -8.61382
upperneck 14.133 1.94253 2.18945
head 4.17386 0.444874 2.31031
rclavicle 7.95139e-015 -1.53064e-014
rhumerus -63.098 21.2822 -109.968
rradius 44.6411
rwrist 11.346
rhand -60.6349 -318.953
rfingers 7.12502
rthumb -32.7561 -346.004
lclavicle 7.95139e-015 -1.53064e-014
lhumerus -754.012 17.9186 -638.229
lradius 46.9917
lwrist 29.5388
lhand -52.8402 357.52
lfingers 7.12502
lthumb -25.3127 385.86
rfemur 327.479 -22.8508 381.533
rtibia 69.9031
rfoot 19.0406 -6.14818
rtoes 15.2363
lfemur -36.8717 69.1429 -5.49613
ltibia 136.116
lfoot 39.0049 -19.4149
ltoes 1.24826
243
root 15.2916 1.49187 0.739815 -810.575 -87.0119 -360.829
lowerback 61.7936 -5.29728 9.83402
upperback 16.6382 -4.87696 -3.62609
thorax -3.01339 -3.57334 -6.1229
lowerneck 2.27636 1.78327 -8.60583
upperneck 14.2639 1.92047 2.2759
head 4.22335 0.432136 2.34081
rclavicle -1.14301e-014 -7.35503e-014
rhumerus -63.7339 21.7544 -110.374
rradius 45.5206
rwrist 10.6754
rhand -60.5812 -318.774
rfingers 7.12502
rthumb -32.705 -345.836
lclavicle -1.14301e-014 -7.35503e-014
lhumerus -754.336 17.6871 -638.375
lradius 47.8221
lwrist 30.4998
lhand -52.6432 357.945
lfingers 7.12502
lthumb -25.1239 386.312
rfemur 328.232 -22.3577 381.177
rtibia 69.4867
rfoot 19.0524 -6.58733
rtoes 15.3684
lfemur -39.3266 67.8407 -7.83759
ltibia 135.643
lfoot 38.5141 -19.7866
ltoes 1.45799
244
root 15.2973 1.48938 0.741393 -810.176 -86.9315 -361.647
lowerback 61.6675 -5.33418 9.8352
upperback 16.6432 -4.91627 -3.62842
thorax -3.01304 -3.58861 -6.11221
lowerneck 2.49087 1.78913 -8.57049
upperneck 14.2821 1.89407 2.34089
head 4.18983 0.420054 2.35262
rclavicle -2.66868e-014 -3.91606e-014
rhumerus -64.3564 22.1795 -110.763
rradius 46.3334
rwrist 10.1385
rhand -60.5407 -318.805
rfingers 7.12502
rthumb -32.6664 -345.875
lclavicle -2.66868e-014 -3.91606e-014
lhumerus -754.668 17.3852 -638.495
lradius 48.6234
lwrist 31.3644
lhand -52.5814 358.33
lfingers 7.12502
lthumb -25.0647 386.706
rfemur 328.955 -21.9123 380.865
rtibia 69.0902
rfoot 19.0722 -6.95328
rtoes 15.3468
lfemur -41.3553 66.5275 -9.72206
ltibia 135.17
lfoot 38.039 -19.8268
ltoes 1.94935
245
root 15.3037 1.48746 0.743517 -809.641 -86.8382 -362.619
lowerback 61.5298 -5.36637 9.82391
upperback 16.6724 -4.96338 -3.63093
thorax -2.98642 -3.60926 -6.09509
lowerneck 2.72179 1.79904 -8.54354
upperneck 14.2815 1.87023 2.42244
head 4.14616 0.410025 2.3712
rclavicle 6.70898e-015 3.86636e-014
rhumerus -64.9455 22.605 -111.145
rradius 47.1349
rwrist 9.53112
rhand -60.4705 -318.793
rfingers 7.12502
rthumb -32.5996 -345.877
lclavicle 6.70898e-015 3.86636e-014
lhumerus -754.939 17.0746 -638.604
lradius 49.4072
lwrist 32.173
lhand -52.509 358.86
lfingers 7.12502
lthumb -24.9954 387.245
rfemur 329.696 -21.4904 380.548
rtibia 68.7042
rfoot 19.0991 -7.20849
rtoes 15.2479
lfemur -43.0145 65.2255 -11.2753
ltibia 134.675
lfoot 37.4927 -19.8764
ltoes 2.18893
